<?xml version="1.0" encoding="UTF-8" standalone="no"?>
<!DOCTYPE svg PUBLIC "-//W3C//DTD SVG 1.1//EN" "http://www.w3.org/Graphics/SVG/1.1/DTD/svg11.dtd">
<svg xmlns="http://www.w3.org/2000/svg" version="1.1" viewBox="0.00 0.00 614.00 406.00">
<path fill="#efe40a" d="
  M 419.15 153.69
  A 0.51 0.51 0.0 0 1 419.61 153.40
  L 435.90 153.27
  A 0.85 0.72 8.7 0 1 436.76 154.25
  L 399.57 249.77
  Q 399.09 251.00 397.76 251.00
  L 382.53 251.00
  Q 380.99 251.00 381.55 249.56
  Q 398.47 206.15 413.82 166.18
  Q 416.15 160.10 419.15 153.69
  Z"
/>
<path fill="#ffffff" d="
  M 143.62 196.32
  C 150.57 177.68 164.92 161.70 183.62 153.61
  Q 184.23 153.35 184.47 153.96
  L 189.46 166.31
  A 0.71 0.69 66.4 0 1 189.12 167.20
  C 170.93 175.86 157.32 185.74 147.91 202.67
  A 0.43 0.42 -46.5 0 1 147.18 202.69
  L 143.73 197.36
  A 1.16 1.15 -51.2 0 1 143.62 196.32
  Z"
/>
<path fill="#efe40a" d="
  M 320.93 206.35
  L 321.31 235.44
  A 1.09 1.09 0.0 0 1 320.18 236.54
  L 304.69 236.00
  A 1.09 1.09 0.0 0 1 303.64 234.91
  L 303.49 159.09
  A 1.09 1.09 0.0 0 1 304.58 158.00
  L 320.16 158.00
  A 1.09 1.09 0.0 0 1 321.25 159.09
  L 321.25 188.15
  A 1.09 1.09 0.0 0 0 322.34 189.24
  L 350.16 189.28
  A 1.09 1.09 0.0 0 0 351.25 188.19
  L 351.25 159.01
  A 1.09 1.09 0.0 0 1 352.37 157.92
  L 368.20 158.29
  A 1.09 1.09 0.0 0 1 369.27 159.38
  L 368.97 235.16
  A 1.09 1.09 0.0 0 1 367.88 236.25
  L 352.30 236.25
  A 1.09 1.09 0.0 0 1 351.21 235.15
  L 351.58 206.35
  A 1.09 1.09 0.0 0 0 350.49 205.25
  L 322.02 205.25
  A 1.09 1.09 0.0 0 0 320.93 206.35
  Z"
/>
<path fill="#ffffff" d="
  M 179.96 173.77
  C 196.26 180.85 211.17 193.49 218.79 210.23
  Q 219.46 211.69 219.13 213.35
  A 0.97 0.96 85.2 0 1 218.52 214.08
  L 207.98 218.09
  Q 206.66 218.59 205.98 217.35
  C 201.74 209.59 197.53 200.95 192.10 194.59
  Q 184.02 185.11 173.41 178.44
  A 0.56 0.56 0.0 0 1 173.40 177.49
  L 179.02 173.85
  A 1.01 1.00 -49.7 0 1 179.96 173.77
  Z"
/>
<path fill="#efe40a" d="
  M 272.64 208.75
  Q 270.84 209.68 272.66 210.59
  L 291.76 220.13
  Q 292.20 220.35 292.20 220.84
  L 292.27 235.22
  A 0.62 0.62 0.0 0 1 291.35 235.77
  Q 269.66 224.06 247.67 212.85
  C 244.84 211.40 245.73 207.24 248.24 205.93
  Q 269.75 194.66 291.41 183.69
  A 0.61 0.60 -12.8 0 1 292.29 184.24
  L 292.12 198.28
  A 0.73 0.71 -13.5 0 1 291.73 198.90
  L 272.64 208.75
  Z"
/>
<path fill="#efe40a" d="
  M 465.73 208.64
  L 447.73 199.46
  A 2.70 2.70 0.0 0 1 446.25 197.05
  L 446.25 184.59
  A 0.80 0.80 0.0 0 1 447.42 183.88
  Q 468.47 194.61 489.60 205.68
  C 494.31 208.15 493.19 211.75 489.13 213.83
  Q 468.07 224.62 447.18 235.76
  A 0.56 0.56 0.0 0 1 446.36 235.28
  L 446.20 221.21
  A 1.57 1.56 77.0 0 1 447.09 219.78
  L 465.70 210.88
  A 1.25 1.25 0.0 0 0 465.73 208.64
  Z"
/>
<path fill="#ffffff" d="
  M 172.20 227.43
  A 0.81 0.81 0.0 0 1 172.19 228.81
  L 167.80 231.41
  Q 167.38 231.66 166.92 231.52
  C 159.76 229.44 154.38 225.78 147.95 221.57
  C 136.59 214.15 128.63 204.32 123.28 191.75
  A 1.03 1.02 67.4 0 1 123.83 190.40
  L 134.61 185.94
  Q 136.00 185.36 136.66 186.72
  C 145.16 204.16 155.52 217.25 172.20 227.43
  Z"
/>
<circle fill="#ffffff" cx="173.47" cy="203.35" r="8.24"/>
<path fill="#ffffff" d="
  M 197.40 207.37
  A 0.84 0.83 -41.1 0 1 198.79 207.46
  L 202.44 213.96
  A 0.94 0.94 0.0 0 1 202.46 214.85
  Q 190.45 238.35 166.73 249.68
  A 1.83 1.83 0.0 0 1 164.26 248.77
  L 159.61 238.19
  A 1.15 1.14 66.2 0 1 160.19 236.68
  C 175.51 229.93 187.20 220.73 197.40 207.37
  Z"
/>
</svg>
